<?xml version="1.0" encoding="iso-8859-1"?>
<!-- Uploaded to: SVG Repo, www.svgrepo.com, Generator: SVG Repo Mixer Tools -->
<svg height="800px" width="800px" version="1.1" id="Layer_1" xmlns="http://www.w3.org/2000/svg" xmlns:xlink="http://www.w3.org/1999/xlink" 
	 viewBox="0 0 511.999 511.999" xml:space="preserve">
<path style="fill:#FFFFA6;" d="M303.758,169.051c12.606,78.16-40.535,151.742-118.696,164.348S33.32,292.864,20.714,214.703
	S61.25,62.962,139.41,50.356S291.15,90.891,303.758,169.051z"/>
<path style="fill:#FFE954;" d="M244.134,178.146c7.583,47.017-24.384,91.279-71.401,98.862
	c-47.017,7.583-91.279-24.384-98.862-71.401s24.384-91.279,71.401-98.862C192.288,99.162,236.551,131.129,244.134,178.146z"/>
<path style="fill:#A7E5CB;" d="M342.232,473.928v0.345H126.653c-65.483,0-118.568-53.085-118.568-118.568
	S61.17,237.136,126.653,237.136c14.789,0,28.941,2.715,41.997,7.662c23.541-67.229,87.536-115.451,162.803-115.451
	c95.249,0,172.463,77.214,172.463,172.463C503.916,393.438,432.458,468.362,342.232,473.928z"/>
<path style="fill:#93D6BB;" d="M503.916,301.81c0,91.628-71.458,166.897-161.684,172.463l0,0H126.653
	c-51.96,0-96.107-33.426-112.129-79.944c17.202,9.718,37.069,15.271,58.234,15.271h215.579v-0.345
	c90.226-5.566,161.684-80.491,161.684-172.118c0-26.754-6.093-52.086-16.966-74.683C476.005,193.82,503.916,244.552,503.916,301.81z
	"/>
<path d="M143.966,96.575c27.952-4.529,56.178,3.668,77.437,22.488c3.344,2.96,3.654,8.069,0.695,11.412
	c-2.959,3.344-8.067,3.655-11.412,0.695c-17.613-15.592-40.986-22.384-64.135-18.635c-42.548,6.893-71.577,47.285-64.71,90.041
	c0.386,2.405,0.886,4.812,1.484,7.151c1.107,4.326-1.502,8.73-5.826,9.837c-0.673,0.172-1.347,0.254-2.011,0.254
	c-3.604,0-6.891-2.428-7.826-6.081c-0.721-2.815-1.321-5.709-1.786-8.598C57.6,153.593,92.63,104.891,143.966,96.575z
	 M223.69,100.079c1.428,1.027,3.078,1.521,4.713,1.521c2.514,0,4.991-1.168,6.571-3.365l18.933-26.332
	c2.606-3.625,1.781-8.677-1.844-11.283c-3.626-2.606-8.677-1.782-11.283,1.844l-18.933,26.333
	C219.241,92.422,220.067,97.473,223.69,100.079z M132.128,73.77c0.638,3.974,4.072,6.804,7.972,6.804
	c0.426,0,0.858-0.033,1.291-0.103c4.409-0.708,7.408-4.855,6.7-9.263l-5.149-32.066c-0.708-4.409-4.861-7.407-9.263-6.7
	c-4.409,0.708-7.408,4.855-6.7,9.263L132.128,73.77z M31.907,107.861l26.214,19.017c1.434,1.04,3.095,1.541,4.74,1.541
	c2.502,0,4.969-1.158,6.55-3.338c2.621-3.614,1.817-8.668-1.797-11.291L41.4,94.774c-3.614-2.621-8.668-1.816-11.291,1.797
	C27.489,100.185,28.293,105.24,31.907,107.861z M10,222.286c0.429,0,0.866-0.035,1.302-0.106l31.924-5.172
	c4.408-0.714,7.402-4.866,6.687-9.273c-0.714-4.408-4.867-7.402-9.273-6.687L8.716,206.22c-4.408,0.714-7.402,4.866-6.687,9.273
	C2.674,219.463,6.104,222.286,10,222.286z M459.243,170.759c-34.291-34.647-79.675-53.727-127.791-53.727
	c-65.599,0-126.133,35.828-157.981,93.502c-2.158,3.908-0.739,8.826,3.169,10.985c3.91,2.159,8.827,0.739,10.985-3.169
	c29.003-52.521,84.115-85.149,143.828-85.149c43.766,0,85.067,17.378,116.299,48.931c31.455,31.781,48.528,73.673,48.072,117.959
	c-0.886,86.143-68.571,157.773-154.092,163.071c-0.639,0.04-12.906,0.332-12.906,0.332H126.653
	c-60.295,0-109.856-49.274-110.479-109.84c-0.305-29.687,11.052-57.768,31.979-79.067c20.771-21.14,48.357-32.901,77.677-33.115
	c11.284-0.094,23.008,1.715,34.778,5.344c6.627,2.043,20.513,8.941,24.527,11.463c32.562,20.455,52.001,55.67,52.001,94.202
	c0,4.465,3.62,8.084,8.084,8.084c4.465,0,8.084-3.62,8.084-8.084c0-44.127-22.268-84.461-59.567-107.892
	c-4.79-3.009-20.062-10.664-28.366-13.224c-13.353-4.116-26.69-6.163-39.66-6.062c-33.648,0.247-65.288,13.725-89.092,37.952
	c-23.961,24.385-36.963,56.55-36.614,90.565c0.346,33.683,13.67,65.297,37.515,89.018c23.873,23.746,55.527,36.824,89.131,36.824
	h201.634c0,0,15.925-0.185,16.816-0.525c44.602-3.351,86.103-23.093,117.088-55.752c31.639-33.348,49.324-77.076,49.798-123.128
	C512.491,251.621,493.758,205.631,459.243,170.759z"/>
</svg>