<?xml version="1.0" encoding="utf-8"?>
<!-- Uploaded to: SVG Repo, www.svgrepo.com, Generator: SVG Repo Mixer Tools -->
<svg width="800px" height="800px" viewBox="0 -0.08 20.574 20.574" xmlns="http://www.w3.org/2000/svg">
  <g id="rainy-2" transform="translate(-1.644 -1.934)">
    <path id="secondary" fill="#2ca9bc" d="M21,11.5A3.5,3.5,0,0,1,17.5,15H7a4,4,0,0,1-.68-7.93,6,6,0,0,1,11.6,1A3.49,3.49,0,0,1,21,11.5Z"/>
    <path id="primary" d="M6,19,5,21m9-2-1,2m-3-2L9,21m9-2-1,2m.92-13A6,6,0,0,0,6.32,7,4.014,4.014,0,1,0,7,15H17.5a3.506,3.506,0,1,0,.42-7Z" fill="none" stroke="#000000" stroke-linecap="round" stroke-linejoin="round" stroke-width="2"/>
  </g>
</svg>